<svg xmlns="http://www.w3.org/2000/svg" viewBox="0 0 64 64" width="64" height="64">
  <defs>
    <linearGradient id="t" x1="0" y1="0" x2="1" y2="1">
      <stop offset="0" stop-color="#19E3D9"/>
      <stop offset="1" stop-color="#00838F"/>
    </linearGradient>
    <linearGradient id="p" x1="0" y1="0" x2="1" y2="1">
      <stop offset="0" stop-color="#9B5DE5"/>
      <stop offset="1" stop-color="#6A1B9A"/>
    </linearGradient>
  </defs>
  <rect width="64" height="64" rx="14" fill="#0A0E1A"/>
  <path d="M34 12 H20 a8 8 0 0 0 -8 8 v12 h9 v-9 a3 3 0 0 1 3 -3 h10 z" fill="url(#t)"/>
  <path d="M40 52 H30 v-9 h7 a3 3 0 0 0 3 -3 V20 h9 v24 a8 8 0 0 1 -8 8 z" fill="url(#p)"/>
  <path d="M12 32 v12 a8 8 0 0 0 8 8 h14 v-9 H24 a3 3 0 0 1 -3 -3 v-8 z" fill="#16213E"/>
  <circle cx="32" cy="32" r="5.5" fill="url(#t)"/>
</svg>
